<svg width="32" height="32" viewBox="0 0 32 32" fill="none" xmlns="http://www.w3.org/2000/svg">
<path d="M17.5438 16C17.5438 16.8076 16.8526 17.4624 16.0002 17.4624C15.1477 17.4624 14.4565 16.8076 14.4565 16C14.4565 15.1924 15.1477 14.5376 16.0002 14.5376C16.8526 14.5376 17.5438 15.1924 17.5438 16Z" fill="#9C9FA2"/>
<path d="M17.5438 8.20066C17.5438 9.00825 16.8526 9.66303 16.0002 9.66303C15.1477 9.66303 14.4565 9.00825 14.4565 8.20066C14.4565 7.39307 15.1477 6.73828 16.0002 6.73828C16.8526 6.73828 17.5438 7.39307 17.5438 8.20066Z" fill="#9C9FA2"/>
<path d="M17.5438 23.7993C17.5438 24.6069 16.8526 25.2617 16.0002 25.2617C15.1477 25.2617 14.4565 24.6069 14.4565 23.7993C14.4565 22.9918 15.1477 22.337 16.0002 22.337C16.8526 22.337 17.5438 22.9918 17.5438 23.7993Z" fill="#9C9FA2"/>
</svg>
