<svg width="24" height="24" viewBox="0 0 24 24" fill="none" xmlns="http://www.w3.org/2000/svg">
<path fill-rule="evenodd" clip-rule="evenodd" d="M5.4502 6.28584C5.4502 4.87752 6.59187 3.73584 8.0002 3.73584H15.1431C16.5514 3.73584 17.6931 4.87751 17.6931 6.28584V18.5973C17.6931 19.5045 16.6201 19.9848 15.9435 19.3804L11.5716 15.475L7.1997 19.3804C6.52313 19.9848 5.4502 19.5045 5.4502 18.5973V6.28584ZM8.0002 4.83584C7.19938 4.83584 6.5502 5.48503 6.5502 6.28584V18.4856L11.2052 14.3273C11.4139 14.1409 11.7293 14.1409 11.938 14.3273L16.5931 18.4856V6.28584C16.5931 5.48503 15.9439 4.83584 15.1431 4.83584H8.0002Z" fill="#C0C4C9"/>
<path d="M8.15186 7.27217C8.15186 6.85839 8.44502 6.52295 8.80666 6.52295H14.3342C14.6958 6.52295 14.989 6.85839 14.989 7.27217C14.989 7.68595 14.6958 8.02139 14.3342 8.02139H8.80666C8.44502 8.02139 8.15186 7.68595 8.15186 7.27217Z" fill="#9C9FA2"/>
</svg>
