<svg width="28" height="28" viewBox="0 0 28 28" fill="none" xmlns="http://www.w3.org/2000/svg">
<path d="M9.91634 5.24902L12.833 6.99902L13.9997 7.58236L15.1663 6.41569L18.083 5.24902L20.9997 5.83236L23.333 8.74902L23.9163 12.249L19.833 19.8324L13.9997 22.749L9.91634 20.999L5.24967 15.749L4.08301 10.499L5.83301 6.99902L9.91634 5.24902Z" fill="#157EFF"/>
<path fill-rule="evenodd" clip-rule="evenodd" d="M9.68225 5.93034C7.02241 5.93034 4.86003 8.097 4.86003 10.7817C4.86003 13.9905 6.34222 16.5571 8.19658 18.4571C10.058 20.3643 12.2586 21.5603 13.5846 22.013L13.5903 22.015L13.5903 22.015C13.6737 22.0444 13.8219 22.0692 13.9989 22.0692C14.176 22.0692 14.3241 22.0444 14.4075 22.015L14.4132 22.013L14.4132 22.013C15.7392 21.5603 17.9399 20.3643 19.8012 18.4571C21.6556 16.5571 23.1378 13.9905 23.1378 10.7817C23.1378 8.097 20.9754 5.93034 18.3156 5.93034C16.7486 5.93034 15.3441 6.69187 14.4672 7.87258C14.3572 8.02076 14.1835 8.10812 13.9989 8.10812C13.8143 8.10812 13.6406 8.02076 13.5306 7.87258C12.6534 6.69139 11.2584 5.93034 9.68225 5.93034ZM3.69336 10.7817C3.69336 7.45812 6.37264 4.76367 9.68225 4.76367C11.3834 4.76367 12.9139 5.47736 13.9991 6.62029C15.0865 5.47705 16.6233 4.76367 18.3156 4.76367C21.6252 4.76367 24.3045 7.45812 24.3045 10.7817C24.3045 14.3785 22.6367 17.2223 20.6362 19.272C18.6439 21.3133 16.2863 22.6058 14.7928 23.1162C14.5463 23.2026 14.2583 23.2359 13.9989 23.2359C13.7395 23.2359 13.4515 23.2026 13.2051 23.1162C11.7115 22.6058 9.35398 21.3133 7.36167 19.272C5.36116 17.2223 3.69336 14.3785 3.69336 10.7817Z" fill="#157EFF"/>
</svg>
