<svg width="24" height="24" viewBox="0 0 24 24" fill="none" xmlns="http://www.w3.org/2000/svg">
<path fill-rule="evenodd" clip-rule="evenodd" d="M8.30033 5.08301C6.02047 5.08301 4.16699 6.94014 4.16699 9.24134C4.16699 11.9917 5.43745 14.1917 7.0269 15.8202C8.62238 17.4549 10.5086 18.4802 11.6452 18.8682L11.6501 18.8698L11.6501 18.8698C11.7216 18.8951 11.8486 18.9163 12.0003 18.9163C12.1521 18.9163 12.2791 18.8951 12.3506 18.8698L12.3554 18.8681L12.3555 18.8682C13.492 18.4802 15.3783 17.4549 16.9738 15.8202C18.5632 14.1917 19.8337 11.9917 19.8337 9.24134C19.8337 6.94014 17.9802 5.08301 15.7003 5.08301C14.3572 5.08301 13.1533 5.73575 12.4017 6.74778C12.3074 6.8748 12.1585 6.94967 12.0003 6.94967C11.8421 6.94967 11.6932 6.8748 11.5989 6.74778C10.847 5.73534 9.65131 5.08301 8.30033 5.08301ZM3.16699 9.24134C3.16699 6.39254 5.46352 4.08301 8.30033 4.08301C9.75845 4.08301 11.0703 4.69474 12.0005 5.6744C12.9325 4.69448 14.2498 4.08301 15.7003 4.08301C18.5371 4.08301 20.8337 6.39254 20.8337 9.24134C20.8337 12.3243 19.4041 14.7618 17.6894 16.5187C15.9817 18.2684 13.961 19.3762 12.6808 19.8138C12.4695 19.8878 12.2226 19.9163 12.0003 19.9163C11.778 19.9163 11.5311 19.8878 11.3199 19.8138C10.0397 19.3762 8.01895 18.2684 6.31125 16.5187C4.59654 14.7618 3.16699 12.3243 3.16699 9.24134Z" fill="#9C9FA2"/>
</svg>
